<svg id="kabe" xmlns="http://www.w3.org/2000/svg" viewBox="0 0 43.41 46.03"><path d="M10.27,20.48,0,17.07V28.46l12.21,7.41,9.5,2,.9-6.76-.9-5.37Z" fill="#454554"/><path d="M32.56,35l10.85-7.84V16.93L22.22,25.6l-.51.18V37.91Z" fill="#2d2d3a"/><path d="M0,8.68l10.31,5.77,11.4,3.29L23,8.87,21.71,0Z" fill="#525263"/><path d="M21.71,0V17.74L33,14.51,43.41,8.68Z" fill="#454554"/><path d="M32.56,32.12l-.78,4.16.78,4,10.85-5.79v-7.3Z" fill="#b1bfe8"/><path d="M27.13,43.16l1.27-5.73L27.13,35l-5.42,2.89-.82,3.92L21.71,46h0Z" fill="#b1bfe8"/><path d="M21.71,22.88,23.94,20l-2.23-2.23L0,8.68v5.47l10.19,5.74,11.51,3Z" fill="#454554"/><path d="M43.41,8.68l-21.7,9.06v5.14l10.85-3L43.41,14Z" fill="#2d2d3a"/><path d="M21.71,25.78l.9-1.68-.9-1.22h0L0,14.15v2.92l21.2,8.53Z" fill="#ffde46"/><path d="M43.41,16.93V14l-21.7,8.88v2.9l.51-.18Z" fill="#ffb64c"/><path d="M8.14,32,5.43,35l2.71,4.66,6.78,3.16,1.17-3.27L14.92,35Z" fill="#f2f2fc"/><path d="M1.36,29.05,0,28.46v7.42l8.14,3.8V32Z" fill="#e2d9fb"/><path d="M14.92,35v7.88L21.71,46v-8.1Z" fill="#e2d9fb"/><path d="M27.13,43.16l5.43-2.9V28.41l-5.43,2.72Z" fill="#ffb64c"/></svg>