<svg id="Layer_1" data-name="Layer 1" xmlns="http://www.w3.org/2000/svg" viewBox="0 0 291.35 290.7"><g id="pusula"><g id="Group_210" data-name="Group 210"><path id="Rectangle_969" data-name="Rectangle 969" d="M13,145.92h0a1,1,0,0,1,1-1h10.4a1,1,0,0,1,1,1h0a1,1,0,0,1-1,1H14A1,1,0,0,1,13,145.92Z" transform="translate(0 -0.63)" fill="#fff" opacity="0.99" style="isolation:isolate"/><path id="Rectangle_970" data-name="Rectangle 970" d="M19.11,179.82h0a.81.81,0,0,1,.55-1h.05l7.2-1.9a.8.8,0,0,1,1,.55s0,0,0,.05h0a.8.8,0,0,1-.55,1h-.05l-7.2,1.8A.83.83,0,0,1,19.11,179.82Z" transform="translate(0 -0.63)" fill="#fff" opacity="0.3" style="isolation:isolate"/><path id="Rectangle_971" data-name="Rectangle 971" d="M32.21,211.32h0a.8.8,0,0,1,.29-1.09h0l6.5-3.7a.8.8,0,0,1,1.09.29h0a.8.8,0,0,1-.29,1.09h0l-6.5,3.7a.8.8,0,0,1-1.09-.29Z" transform="translate(0 -0.63)" fill="#fff" opacity="0.3" style="isolation:isolate"/><path id="Rectangle_972" data-name="Rectangle 972" d="M53,238.42h0a.78.78,0,0,1,0-1.1l5.3-5.3a.78.78,0,0,1,1.1,0h0a.78.78,0,0,1,0,1.1l-5.3,5.3A.78.78,0,0,1,53,238.42Z" transform="translate(0 -0.63)" fill="#fff" opacity="0.3" style="isolation:isolate"/><path id="Rectangle_973" data-name="Rectangle 973" d="M80.11,259.22h0a.81.81,0,0,1-.31-1.09h0l3.7-6.5a.81.81,0,0,1,1.09-.31h0a.8.8,0,0,1,.31,1.09h0l-3.7,6.5a.8.8,0,0,1-1.09.31Z" transform="translate(0 -0.63)" fill="#fff" opacity="0.3" style="isolation:isolate"/><path id="Rectangle_974" data-name="Rectangle 974" d="M111.7,272.32h0a.89.89,0,0,1-.6-1l1.9-7.2a.89.89,0,0,1,1-.6h0a.89.89,0,0,1,.6,1l-1.9,7.16A.89.89,0,0,1,111.7,272.32Z" transform="translate(0 -0.63)" fill="#fff" opacity="0.3" style="isolation:isolate"/><path id="Rectangle_975" data-name="Rectangle 975" d="M146.21,278.32h0a1,1,0,0,1-1-1v-10.4a1,1,0,0,1,1-1h0a1,1,0,0,1,1,1v10.4A1,1,0,0,1,146.21,278.32Z" transform="translate(0 -0.63)" fill="#fff"/><path id="Rectangle_976" data-name="Rectangle 976" d="M179.41,271.42h0a.81.81,0,0,1-1-.55s0,0,0-.05l-1.9-7.2a.81.81,0,0,1,.55-1h.05a.8.8,0,0,1,1,.55s0,0,0,.05l1.9,7.2a.8.8,0,0,1-.55,1Z" transform="translate(0 -0.63)" fill="#fff" opacity="0.3" style="isolation:isolate"/><path id="Rectangle_977" data-name="Rectangle 977" d="M211,259h0a.8.8,0,0,1-1.09-.29h0l-3.7-6.5a.8.8,0,0,1,.29-1.09h0a.8.8,0,0,1,1.09.29h0l3.7,6.5A.8.8,0,0,1,211,259Z" transform="translate(0 -0.63)" fill="#fff" opacity="0.3" style="isolation:isolate"/><path id="Rectangle_978" data-name="Rectangle 978" d="M238.11,238.22h0a.78.78,0,0,1-1.1,0l-5.3-5.3a.78.78,0,0,1,0-1.1h0a.78.78,0,0,1,1.1,0l5.3,5.3A.78.78,0,0,1,238.11,238.22Z" transform="translate(0 -0.63)" fill="#fff" opacity="0.3" style="isolation:isolate"/><path id="Rectangle_979" data-name="Rectangle 979" d="M258.91,211h0a.8.8,0,0,1-1.09.31h0l-6.5-3.7a.81.81,0,0,1-.31-1.09h0a.81.81,0,0,1,1.09-.31h0l6.5,3.7A.91.91,0,0,1,258.91,211Z" transform="translate(0 -0.63)" fill="#fff" opacity="0.3" style="isolation:isolate"/><path id="Rectangle_980" data-name="Rectangle 980" d="M271.91,179.42h0a.89.89,0,0,1-1,.6l-7.2-1.9a.89.89,0,0,1-.6-1h0a.89.89,0,0,1,1-.6l7.2,1.9A1,1,0,0,1,271.91,179.42Z" transform="translate(0 -0.63)" fill="#fff" opacity="0.3" style="isolation:isolate"/><path id="Rectangle_981" data-name="Rectangle 981" d="M265.51,145.52h0a1,1,0,0,1,1-1h10.4a1,1,0,0,1,1,1h0a1,1,0,0,1-1,1h-10.4a1,1,0,0,1-1-1Z" transform="translate(0 -0.63)" fill="#fff" opacity="0.99" style="isolation:isolate"/><path id="Rectangle_982" data-name="Rectangle 982" d="M271.7,111.68h0a.8.8,0,0,1-.55,1h0l-7.2,2a.81.81,0,0,1-1-.55s0,0,0,0h0a.81.81,0,0,1,.55-1h.05l7.2-2a.8.8,0,0,1,1,.55S271.7,111.66,271.7,111.68Z" transform="translate(0 -0.63)" fill="#fff" opacity="0.3" style="isolation:isolate"/><path id="Rectangle_984" data-name="Rectangle 984" d="M237.61,53.12h0a.78.78,0,0,1,0,1.1l-5.3,5.3a.78.78,0,0,1-1.1,0h0a.78.78,0,0,1,0-1.1l5.3-5.3A.78.78,0,0,1,237.61,53.12Z" transform="translate(0 -0.63)" fill="#fff" opacity="0.3" style="isolation:isolate"/><path id="Rectangle_985" data-name="Rectangle 985" d="M210.51,32.42h0a.8.8,0,0,1,.31,1.09h0l-3.7,6.5a.8.8,0,0,1-1.09.31h0a.81.81,0,0,1-.31-1.09h0l3.7-6.5a.73.73,0,0,1,1-.38Z" transform="translate(0 -0.63)" fill="#fff" opacity="0.3" style="isolation:isolate"/><path id="Rectangle_986" data-name="Rectangle 986" d="M178.81,19.42h0a.83.83,0,0,1,.6,1l-1.9,7.2a.83.83,0,0,1-1,.6h0a.83.83,0,0,1-.6-1l1.9-7.2A.85.85,0,0,1,178.81,19.42Z" transform="translate(0 -0.63)" fill="#fff" opacity="0.3" style="isolation:isolate"/><path id="Rectangle_987" data-name="Rectangle 987" d="M144,24.82V14.42a1,1,0,0,1,1-1h0a1,1,0,0,1,1,1v10.4a1,1,0,0,1-1,1h0A1,1,0,0,1,144,24.82Z" transform="translate(0 -0.63)" fill="#fff" opacity="0.99" style="isolation:isolate"/><path id="Rectangle_988" data-name="Rectangle 988" d="M111.11,19.68h0a.8.8,0,0,1,1,.55s0,0,0,.05l2,7.2a.8.8,0,0,1-.55,1h0a.81.81,0,0,1-1-.55s0,0,0-.05l-2-7.2a.76.76,0,0,1,.47-1Z" transform="translate(0 -0.63)" fill="#fff" opacity="0.3" style="isolation:isolate"/><path id="Rectangle_989" data-name="Rectangle 989" d="M79.51,32.92h0a.8.8,0,0,1,1.09.29h0l3.8,6.5a.8.8,0,0,1-.29,1.09h0A.8.8,0,0,1,83,40.53h0L79.21,34A.91.91,0,0,1,79.51,32.92Z" transform="translate(0 -0.63)" fill="#fff" opacity="0.3" style="isolation:isolate"/><path id="Rectangle_990" data-name="Rectangle 990" d="M52.51,53.82h0a.78.78,0,0,1,1.1,0l5.3,5.3a.78.78,0,0,1,0,1.1h0a.78.78,0,0,1-1.1,0l-5.3-5.3A.78.78,0,0,1,52.51,53.82Z" transform="translate(0 -0.63)" fill="#fff" opacity="0.3" style="isolation:isolate"/><path id="Rectangle_991" data-name="Rectangle 991" d="M31.81,81h0a.81.81,0,0,1,1.09-.31h0l6.5,3.7a.8.8,0,0,1,.31,1.09h0a.8.8,0,0,1-1.09.31h0l-6.5-3.7A.91.91,0,0,1,31.81,81Z" transform="translate(0 -0.63)" fill="#fff" opacity="0.3" style="isolation:isolate"/><path id="Rectangle_992" data-name="Rectangle 992" d="M18.91,112.62h0a.83.83,0,0,1,1-.6l7.2,1.9a.83.83,0,0,1,.6,1h0a.83.83,0,0,1-1,.6l-7.2-1.9A.83.83,0,0,1,18.91,112.62Z" transform="translate(0 -0.63)" fill="#fff" opacity="0.3" style="isolation:isolate"/><path d="M148.61,31.82h3.2V48H149l-7.6-10.6h-.1V48h-3.2V31.82h2.8l7.6,10.6h.1Z" transform="translate(0 -0.63)" fill="#fff"/><path d="M39.1,143.78,36,154.88H32.8l-4.3-16.2H32l2.5,11.7h.1l3-11.7h2.91l3,11.7h.1l2.6-11.8h3.5l-4.3,16.2h-3.2l-3-11Z" transform="translate(0 -0.63)" fill="#fff"/><path d="M261.41,152v2.9h-11.2V138h11.2v2.9h-7.7V145h7.21v2.7h-7.2V152Z" transform="translate(0 -0.63)" fill="#fff"/><path d="M139.42,256.12h3.3a2,2,0,0,0,1.1,1.6,4.13,4.13,0,0,0,2.3.6,3.79,3.79,0,0,0,2.2-.6,1.66,1.66,0,0,0,.8-1.5,1.75,1.75,0,0,0-.6-1.3,5.42,5.42,0,0,0-2.1-.8l-2.1-.5q-4.5-.9-4.5-4.5a4.47,4.47,0,0,1,1.7-3.6,7.14,7.14,0,0,1,4.5-1.4,6.94,6.94,0,0,1,4.5,1.3,4.39,4.39,0,0,1,1.7,3.5H149a2.34,2.34,0,0,0-.9-1.6,3.7,3.7,0,0,0-2.1-.6,4,4,0,0,0-2,.5,1.88,1.88,0,0,0-.8,1.4,1.41,1.41,0,0,0,.6,1.2,5.43,5.43,0,0,0,2,.8l2,.4a6.71,6.71,0,0,1,3.5,1.6,4,4,0,0,1,1.1,2.9,4.32,4.32,0,0,1-1.8,3.7,7.82,7.82,0,0,1-4.8,1.4,7.48,7.48,0,0,1-4.7-1.3A3.31,3.31,0,0,1,139.42,256.12Z" transform="translate(0 -0.63)" fill="#fff"/></g><g id="Group_218" data-name="Group 218"><text transform="translate(136.63 289.05)" font-size="9" fill="#fff" font-family="CaviarDreams, Caviar Dreams" style="isolation:isolate">180</text><g id="Ellipse_193" data-name="Ellipse 193"><circle cx="155.26" cy="282.73" r="0.9" fill="none"/><circle cx="155.26" cy="282.73" r="0.8" fill="none" stroke="#fff" stroke-width="0.3"/></g></g><g id="Group_215" data-name="Group 215"><text transform="translate(289.7 151.43) rotate(-90)" font-size="9" fill="#fff" font-family="CaviarDreams, Caviar Dreams" style="isolation:isolate">90</text><g id="Ellipse_194" data-name="Ellipse 194"><circle cx="283.37" cy="138.07" r="0.9" fill="none"/><circle cx="283.37" cy="138.07" r="0.8" fill="none" stroke="#fff" stroke-width="0.3"/></g></g><g id="Group_216" data-name="Group 216"><text transform="translate(141.62 7.13)" font-size="8" fill="#fff" font-family="CaviarDreams, Caviar Dreams" style="isolation:isolate">0</text><g id="Ellipse_195" data-name="Ellipse 195"><circle cx="149.11" cy="1.93" r="0.9" fill="none"/><circle cx="149.11" cy="1.93" r="0.8" fill="none" stroke="#fff" stroke-width="0.3"/></g></g><g id="Group_217" data-name="Group 217"><text transform="translate(1.65 136.46) rotate(90)" font-size="9" fill="#fff" font-family="CaviarDreams, Caviar Dreams" style="isolation:isolate">270</text><g id="Ellipse_196" data-name="Ellipse 196"><circle cx="7.77" cy="155.09" r="0.9" fill="none"/><circle cx="7.77" cy="155.09" r="0.8" fill="none" stroke="#fff" stroke-width="0.3"/></g></g></g></svg>