<svg xmlns="http://www.w3.org/2000/svg" viewBox="0 0 292 291" width="292" height="291">

	<g >
		<g >
			<path class="shp0" d="M13.66 145.59L13.66 145.59C13.66 145.46 13.69 145.33 13.74 145.21C13.79 145.09 13.86 144.98 13.95 144.88C14.05 144.79 14.16 144.72 14.28 144.67C14.4 144.62 14.53 144.59 14.66 144.59L25.06 144.59C25.19 144.59 25.32 144.62 25.44 144.67C25.56 144.72 25.67 144.79 25.77 144.88C25.86 144.98 25.93 145.09 25.98 145.21C26.03 145.33 26.06 145.46 26.06 145.59L26.06 145.59C26.06 145.72 26.03 145.85 25.98 145.97C25.93 146.09 25.86 146.2 25.77 146.3C25.67 146.39 25.56 146.46 25.44 146.51C25.32 146.56 25.19 146.59 25.06 146.59L14.66 146.59C14.53 146.59 14.4 146.56 14.28 146.51C14.16 146.46 14.05 146.39 13.95 146.3C13.86 146.2 13.79 146.09 13.74 145.97C13.69 145.85 13.66 145.72 13.66 145.59Z" />
			<path class="shp1" d="M19.76 179.49L19.76 179.49C19.73 179.38 19.72 179.27 19.74 179.17C19.75 179.06 19.79 178.95 19.84 178.86C19.9 178.77 19.97 178.69 20.06 178.62C20.15 178.56 20.25 178.51 20.36 178.49L27.56 176.59C27.67 176.56 27.78 176.55 27.88 176.57C27.99 176.58 28.1 176.62 28.19 176.67C28.28 176.73 28.36 176.8 28.43 176.89C28.49 176.98 28.54 177.08 28.56 177.19L28.56 177.19C28.59 177.3 28.6 177.41 28.58 177.51C28.57 177.62 28.53 177.73 28.48 177.82C28.42 177.91 28.35 177.99 28.26 178.06C28.17 178.12 28.07 178.17 27.96 178.19L20.76 179.99C20.66 180.02 20.56 180.03 20.46 180.02C20.35 180.01 20.25 179.98 20.16 179.93C20.07 179.89 19.99 179.83 19.92 179.75C19.85 179.67 19.8 179.59 19.76 179.49Z" />
			<path class="shp1" d="M32.86 210.99L32.86 210.99C32.81 210.9 32.77 210.8 32.76 210.69C32.74 210.59 32.75 210.48 32.78 210.38C32.81 210.27 32.86 210.18 32.92 210.1C32.99 210.01 33.07 209.94 33.16 209.89L39.66 206.19C39.75 206.14 39.85 206.1 39.96 206.09C40.06 206.07 40.17 206.08 40.27 206.11C40.38 206.14 40.47 206.19 40.55 206.25C40.64 206.32 40.71 206.4 40.76 206.49L40.76 206.49C40.81 206.58 40.85 206.68 40.86 206.79C40.88 206.89 40.87 207 40.84 207.1C40.81 207.21 40.76 207.3 40.7 207.38C40.63 207.47 40.55 207.54 40.46 207.59L33.96 211.29C33.87 211.34 33.77 211.38 33.66 211.39C33.56 211.41 33.45 211.4 33.35 211.37C33.24 211.34 33.15 211.29 33.07 211.23C32.98 211.16 32.91 211.08 32.86 210.99L32.86 210.99Z" />
			<path class="shp1" d="M53.66 238.09L53.66 238.09C53.59 238.02 53.53 237.93 53.49 237.84C53.45 237.74 53.43 237.64 53.43 237.54C53.43 237.44 53.45 237.34 53.49 237.24C53.53 237.15 53.59 237.06 53.66 236.99L58.96 231.69C59.03 231.62 59.12 231.56 59.21 231.52C59.31 231.48 59.41 231.46 59.51 231.46C59.61 231.46 59.71 231.48 59.81 231.52C59.9 231.56 59.99 231.62 60.06 231.69L60.06 231.69C60.13 231.76 60.19 231.85 60.23 231.94C60.27 232.04 60.29 232.14 60.29 232.24C60.29 232.34 60.27 232.44 60.23 232.54C60.19 232.63 60.13 232.72 60.06 232.79L54.76 238.09C54.69 238.16 54.6 238.22 54.51 238.26C54.41 238.3 54.31 238.32 54.21 238.32C54.11 238.32 54.01 238.3 53.91 238.26C53.82 238.22 53.73 238.16 53.66 238.09L53.66 238.09Z" />
			<path class="shp1" d="M80.76 258.89L80.76 258.89C80.67 258.84 80.59 258.77 80.52 258.68C80.46 258.6 80.41 258.51 80.38 258.4C80.35 258.3 80.34 258.19 80.36 258.09C80.37 257.98 80.41 257.88 80.46 257.79L84.16 251.29C84.21 251.2 84.28 251.12 84.37 251.05C84.45 250.99 84.54 250.94 84.65 250.91C84.75 250.88 84.86 250.87 84.96 250.89C85.07 250.9 85.17 250.94 85.26 250.99L85.26 250.99C85.35 251.04 85.43 251.11 85.5 251.2C85.56 251.28 85.61 251.37 85.64 251.48C85.67 251.58 85.68 251.69 85.66 251.79C85.65 251.9 85.61 252 85.56 252.09L81.86 258.59C81.81 258.68 81.74 258.76 81.65 258.83C81.57 258.89 81.48 258.94 81.37 258.97C81.27 259 81.16 259.01 81.06 258.99C80.95 258.98 80.85 258.94 80.76 258.89L80.76 258.89Z" />
			<path class="shp1" d="M112.35 271.99L112.35 271.99C112.25 271.96 112.15 271.91 112.07 271.84C111.99 271.77 111.92 271.69 111.86 271.6C111.81 271.51 111.77 271.41 111.75 271.31C111.73 271.2 111.73 271.09 111.75 270.99L113.65 263.79C113.68 263.69 113.73 263.59 113.8 263.51C113.87 263.43 113.95 263.36 114.04 263.3C114.13 263.25 114.23 263.21 114.33 263.19C114.44 263.17 114.55 263.17 114.65 263.19L114.65 263.19C114.75 263.22 114.85 263.27 114.93 263.34C115.01 263.41 115.08 263.49 115.14 263.58C115.19 263.67 115.23 263.77 115.25 263.87C115.27 263.98 115.27 264.09 115.25 264.19L113.35 271.35C113.32 271.45 113.27 271.55 113.21 271.64C113.14 271.73 113.06 271.8 112.97 271.86C112.88 271.92 112.78 271.96 112.67 271.98C112.57 272.01 112.46 272.01 112.35 271.99Z" />
			<path class="shp2" d="M146.86 277.99L146.86 277.99C146.73 277.99 146.6 277.96 146.48 277.91C146.36 277.86 146.25 277.79 146.15 277.7C146.06 277.6 145.99 277.49 145.94 277.37C145.89 277.25 145.86 277.12 145.86 276.99L145.86 266.59C145.86 266.46 145.89 266.33 145.94 266.21C145.99 266.09 146.06 265.98 146.15 265.88C146.25 265.79 146.36 265.72 146.48 265.67C146.6 265.62 146.73 265.59 146.86 265.59L146.86 265.59C146.99 265.59 147.12 265.62 147.24 265.67C147.36 265.72 147.47 265.79 147.57 265.88C147.66 265.98 147.73 266.09 147.78 266.21C147.83 266.33 147.86 266.46 147.86 266.59L147.86 276.99C147.86 277.12 147.83 277.25 147.78 277.37C147.73 277.49 147.66 277.6 147.57 277.7C147.47 277.79 147.36 277.86 147.24 277.91C147.12 277.96 146.99 277.99 146.86 277.99Z" />
			<path class="shp1" d="M180.06 271.09L180.06 271.09C179.95 271.12 179.84 271.13 179.74 271.11C179.63 271.1 179.52 271.06 179.43 271.01C179.34 270.95 179.26 270.88 179.19 270.79C179.13 270.7 179.08 270.6 179.06 270.49L177.16 263.29C177.13 263.18 177.12 263.07 177.14 262.97C177.15 262.86 177.19 262.75 177.24 262.66C177.3 262.57 177.37 262.49 177.46 262.42C177.55 262.36 177.65 262.31 177.76 262.29L177.76 262.29C177.87 262.26 177.98 262.25 178.08 262.27C178.19 262.28 178.3 262.32 178.39 262.37C178.48 262.43 178.56 262.5 178.63 262.59C178.69 262.68 178.74 262.78 178.76 262.89L180.66 270.09C180.69 270.2 180.7 270.31 180.68 270.41C180.67 270.52 180.63 270.63 180.58 270.72C180.52 270.81 180.45 270.89 180.36 270.96C180.27 271.02 180.17 271.07 180.06 271.09Z" />
			<path class="shp1" d="M211.66 258.69L211.66 258.69C211.57 258.74 211.47 258.78 211.36 258.79C211.26 258.81 211.15 258.8 211.05 258.77C210.94 258.74 210.85 258.69 210.77 258.63C210.68 258.56 210.61 258.48 210.56 258.39L206.86 251.89C206.81 251.8 206.77 251.7 206.76 251.59C206.74 251.49 206.75 251.38 206.78 251.28C206.81 251.17 206.86 251.08 206.92 251C206.99 250.91 207.07 250.84 207.16 250.79L207.16 250.79C207.25 250.74 207.35 250.7 207.46 250.69C207.56 250.67 207.67 250.68 207.77 250.71C207.88 250.74 207.97 250.79 208.05 250.85C208.14 250.92 208.21 251 208.26 251.09L211.96 257.59C212.01 257.68 212.05 257.78 212.06 257.89C212.08 257.99 212.07 258.1 212.04 258.2C212.01 258.31 211.96 258.4 211.9 258.48C211.83 258.57 211.75 258.64 211.66 258.69L211.66 258.69Z" />
			<path class="shp1" d="M238.76 237.89L238.76 237.89C238.69 237.96 238.6 238.02 238.51 238.06C238.41 238.1 238.31 238.12 238.21 238.12C238.11 238.12 238.01 238.1 237.91 238.06C237.82 238.02 237.73 237.96 237.66 237.89L232.36 232.59C232.29 232.52 232.23 232.43 232.19 232.34C232.15 232.24 232.13 232.14 232.13 232.04C232.13 231.94 232.15 231.84 232.19 231.74C232.23 231.65 232.29 231.56 232.36 231.49L232.36 231.49C232.43 231.42 232.52 231.36 232.61 231.32C232.71 231.28 232.81 231.26 232.91 231.26C233.01 231.26 233.11 231.28 233.21 231.32C233.3 231.36 233.39 231.42 233.46 231.49L238.76 236.79C238.83 236.86 238.89 236.95 238.93 237.04C238.97 237.14 238.99 237.24 238.99 237.34C238.99 237.44 238.97 237.54 238.93 237.64C238.89 237.73 238.83 237.82 238.76 237.89L238.76 237.89Z" />
			<path class="shp1" d="M259.56 210.69L259.56 210.69C259.51 210.78 259.44 210.86 259.35 210.93C259.27 210.99 259.18 211.04 259.07 211.07C258.97 211.1 258.86 211.11 258.76 211.09C258.65 211.08 258.55 211.04 258.46 210.99L251.96 207.29C251.87 207.24 251.79 207.17 251.72 207.08C251.66 207 251.61 206.91 251.58 206.8C251.55 206.7 251.54 206.59 251.56 206.49C251.57 206.38 251.61 206.28 251.66 206.19L251.66 206.19C251.71 206.1 251.78 206.02 251.87 205.95C251.95 205.89 252.04 205.84 252.15 205.81C252.25 205.78 252.36 205.77 252.46 205.79C252.57 205.8 252.67 205.84 252.76 205.89L259.26 209.59C259.34 209.65 259.42 209.72 259.47 209.81C259.53 209.89 259.58 209.99 259.6 210.09C259.63 210.19 259.64 210.29 259.63 210.39C259.63 210.49 259.6 210.6 259.56 210.69Z" />
			<path class="shp1" d="M272.56 179.09L272.56 179.09C272.53 179.19 272.48 179.29 272.41 179.37C272.34 179.45 272.26 179.52 272.17 179.58C272.08 179.63 271.98 179.67 271.88 179.69C271.77 179.71 271.66 179.71 271.56 179.69L264.36 177.79C264.26 177.76 264.16 177.71 264.08 177.64C264 177.57 263.93 177.49 263.87 177.4C263.82 177.31 263.78 177.21 263.76 177.11C263.74 177 263.74 176.89 263.76 176.79L263.76 176.79C263.79 176.69 263.84 176.59 263.91 176.51C263.98 176.43 264.06 176.36 264.15 176.3C264.24 176.25 264.34 176.21 264.44 176.19C264.55 176.17 264.66 176.17 264.76 176.19L271.96 178.09C272.06 178.13 272.14 178.19 272.22 178.26C272.3 178.32 272.37 178.4 272.42 178.49C272.47 178.58 272.51 178.68 272.54 178.78C272.56 178.88 272.57 178.99 272.56 179.09Z" />
			<path class="shp0" d="M266.16 145.19L266.16 145.19C266.16 145.06 266.19 144.93 266.24 144.81C266.29 144.69 266.36 144.58 266.45 144.48C266.55 144.39 266.66 144.32 266.78 144.27C266.9 144.22 267.03 144.19 267.16 144.19L277.56 144.19C277.69 144.19 277.82 144.22 277.94 144.27C278.06 144.32 278.17 144.39 278.27 144.48C278.36 144.58 278.43 144.69 278.48 144.81C278.53 144.93 278.56 145.06 278.56 145.19L278.56 145.19C278.56 145.32 278.53 145.45 278.48 145.57C278.43 145.69 278.36 145.8 278.27 145.9C278.17 145.99 278.06 146.06 277.94 146.11C277.82 146.16 277.69 146.19 277.56 146.19L267.16 146.19C267.03 146.19 266.9 146.16 266.78 146.11C266.66 146.06 266.55 145.99 266.45 145.9C266.36 145.8 266.29 145.69 266.24 145.57C266.19 145.45 266.16 145.32 266.16 145.19L266.16 145.19Z" />
			<path class="shp1" d="M272.35 111.35L272.35 111.35C272.38 111.46 272.39 111.57 272.37 111.67C272.36 111.78 272.32 111.89 272.27 111.98C272.21 112.07 272.14 112.15 272.05 112.22C271.96 112.28 271.86 112.33 271.75 112.35L264.55 114.35C264.44 114.38 264.33 114.39 264.23 114.37C264.12 114.36 264.01 114.32 263.92 114.27C263.83 114.21 263.75 114.14 263.68 114.05C263.62 113.96 263.57 113.86 263.55 113.75L263.55 113.75C263.52 113.64 263.51 113.53 263.53 113.43C263.54 113.32 263.58 113.21 263.63 113.12C263.69 113.03 263.76 112.95 263.85 112.88C263.94 112.82 264.04 112.77 264.15 112.75L271.35 110.75C271.46 110.72 271.57 110.71 271.67 110.73C271.78 110.74 271.89 110.78 271.98 110.83C272.07 110.89 272.15 110.96 272.22 111.05C272.28 111.14 272.33 111.24 272.35 111.35Z" />
			<path class="shp1" d="M238.26 52.79L238.26 52.79C238.33 52.86 238.39 52.95 238.43 53.04C238.47 53.14 238.49 53.24 238.49 53.34C238.49 53.44 238.47 53.54 238.43 53.64C238.39 53.73 238.33 53.82 238.26 53.89L232.96 59.19C232.89 59.26 232.8 59.32 232.71 59.36C232.61 59.4 232.51 59.42 232.41 59.42C232.31 59.42 232.21 59.4 232.11 59.36C232.02 59.32 231.93 59.26 231.86 59.19L231.86 59.19C231.79 59.12 231.73 59.03 231.69 58.94C231.65 58.84 231.63 58.74 231.63 58.64C231.63 58.54 231.65 58.44 231.69 58.34C231.73 58.25 231.79 58.16 231.86 58.09L237.16 52.79C237.23 52.72 237.32 52.66 237.41 52.62C237.51 52.58 237.61 52.56 237.71 52.56C237.81 52.56 237.91 52.58 238.01 52.62C238.1 52.66 238.19 52.72 238.26 52.79Z" />
			<path class="shp1" d="M211.16 32.09L211.16 32.09C211.25 32.14 211.33 32.21 211.4 32.3C211.46 32.38 211.51 32.47 211.54 32.58C211.57 32.68 211.58 32.79 211.56 32.89C211.55 33 211.51 33.1 211.46 33.19L207.76 39.69C207.71 39.78 207.64 39.86 207.55 39.93C207.47 39.99 207.38 40.04 207.27 40.07C207.17 40.1 207.06 40.11 206.96 40.09C206.85 40.08 206.75 40.04 206.66 39.99L206.66 39.99C206.57 39.94 206.49 39.87 206.42 39.78C206.36 39.7 206.31 39.61 206.28 39.5C206.25 39.4 206.24 39.29 206.26 39.19C206.27 39.08 206.31 38.98 206.36 38.89L210.06 32.39C210.1 32.29 210.17 32.2 210.25 32.13C210.33 32.06 210.43 32 210.54 31.98C210.64 31.95 210.75 31.94 210.86 31.96C210.97 31.98 211.07 32.03 211.16 32.09Z" />
			<path class="shp1" d="M179.46 19.09L179.46 19.09C179.56 19.12 179.66 19.16 179.75 19.23C179.84 19.29 179.91 19.37 179.97 19.47C180.02 19.56 180.06 19.66 180.07 19.77C180.09 19.88 180.09 19.98 180.06 20.09L178.16 27.29C178.13 27.39 178.09 27.49 178.02 27.58C177.96 27.67 177.88 27.74 177.78 27.8C177.69 27.85 177.59 27.89 177.48 27.9C177.37 27.92 177.27 27.92 177.16 27.89L177.16 27.89C177.06 27.86 176.96 27.82 176.87 27.75C176.78 27.69 176.71 27.61 176.65 27.51C176.6 27.42 176.56 27.32 176.55 27.21C176.53 27.1 176.53 27 176.56 26.89L178.46 19.69C178.49 19.59 178.54 19.49 178.6 19.4C178.67 19.32 178.75 19.25 178.84 19.19C178.93 19.14 179.03 19.1 179.14 19.08C179.25 19.06 179.36 19.07 179.46 19.09Z" />
			<path class="shp0" d="M144.66 24.49L144.66 14.09C144.66 13.96 144.69 13.83 144.74 13.71C144.79 13.59 144.86 13.48 144.95 13.38C145.05 13.29 145.16 13.22 145.28 13.17C145.4 13.12 145.53 13.09 145.66 13.09L145.66 13.09C145.79 13.09 145.92 13.12 146.04 13.17C146.16 13.22 146.27 13.29 146.37 13.38C146.46 13.48 146.53 13.59 146.58 13.71C146.63 13.83 146.66 13.96 146.66 14.09L146.66 24.49C146.66 24.62 146.63 24.75 146.58 24.87C146.53 24.99 146.46 25.1 146.37 25.2C146.27 25.29 146.16 25.36 146.04 25.41C145.92 25.46 145.79 25.49 145.66 25.49L145.66 25.49C145.53 25.49 145.4 25.46 145.28 25.41C145.16 25.36 145.05 25.29 144.95 25.2C144.86 25.1 144.79 24.99 144.74 24.87C144.69 24.75 144.66 24.62 144.66 24.49Z" />
			<path class="shp1" d="M111.76 19.35L111.76 19.35C111.87 19.32 111.98 19.31 112.08 19.33C112.19 19.34 112.3 19.38 112.39 19.43C112.48 19.49 112.56 19.56 112.63 19.65C112.69 19.74 112.74 19.84 112.76 19.95L114.76 27.15C114.79 27.26 114.8 27.37 114.78 27.47C114.77 27.58 114.73 27.69 114.68 27.78C114.62 27.87 114.55 27.95 114.46 28.02C114.37 28.08 114.27 28.13 114.16 28.15L114.16 28.15C114.05 28.18 113.94 28.19 113.84 28.17C113.73 28.16 113.62 28.12 113.53 28.07C113.44 28.01 113.36 27.94 113.29 27.85C113.23 27.76 113.18 27.66 113.16 27.55L111.16 20.35C111.12 20.24 111.11 20.13 111.12 20.02C111.13 19.91 111.17 19.81 111.23 19.71C111.28 19.61 111.36 19.53 111.45 19.47C111.55 19.41 111.65 19.37 111.76 19.35Z" />
			<path class="shp1" d="M80.16 32.59L80.16 32.59C80.25 32.54 80.35 32.5 80.46 32.49C80.56 32.47 80.67 32.48 80.77 32.51C80.88 32.54 80.97 32.59 81.05 32.65C81.14 32.72 81.21 32.8 81.26 32.89L85.06 39.39C85.11 39.48 85.15 39.58 85.16 39.69C85.18 39.79 85.17 39.9 85.14 40C85.11 40.11 85.06 40.2 85 40.28C84.93 40.37 84.85 40.44 84.76 40.49L84.76 40.49C84.67 40.54 84.57 40.58 84.46 40.59C84.36 40.61 84.25 40.6 84.15 40.57C84.04 40.54 83.95 40.49 83.87 40.43C83.78 40.36 83.71 40.28 83.66 40.19L79.86 33.69C79.82 33.6 79.79 33.49 79.79 33.39C79.78 33.29 79.79 33.19 79.82 33.09C79.84 32.99 79.89 32.89 79.95 32.81C80 32.72 80.08 32.65 80.16 32.59Z" />
			<path class="shp1" d="M53.16 53.49L53.16 53.49C53.23 53.42 53.32 53.36 53.41 53.32C53.51 53.28 53.61 53.26 53.71 53.26C53.81 53.26 53.91 53.28 54.01 53.32C54.1 53.36 54.19 53.42 54.26 53.49L59.56 58.79C59.63 58.86 59.69 58.95 59.73 59.04C59.77 59.14 59.79 59.24 59.79 59.34C59.79 59.44 59.77 59.54 59.73 59.64C59.69 59.73 59.63 59.82 59.56 59.89L59.56 59.89C59.49 59.96 59.4 60.02 59.31 60.06C59.21 60.1 59.11 60.12 59.01 60.12C58.91 60.12 58.81 60.1 58.71 60.06C58.62 60.02 58.53 59.96 58.46 59.89L53.16 54.59C53.09 54.52 53.03 54.43 52.99 54.34C52.95 54.24 52.93 54.14 52.93 54.04C52.93 53.94 52.95 53.84 52.99 53.74C53.03 53.65 53.09 53.56 53.16 53.49Z" />
			<path class="shp1" d="M32.46 80.69L32.46 80.69C32.51 80.6 32.58 80.52 32.67 80.45C32.75 80.39 32.84 80.34 32.95 80.31C33.05 80.28 33.16 80.27 33.26 80.29C33.37 80.3 33.47 80.34 33.56 80.39L40.06 84.09C40.15 84.14 40.23 84.21 40.3 84.3C40.36 84.38 40.41 84.47 40.44 84.58C40.47 84.68 40.48 84.79 40.46 84.89C40.45 85 40.41 85.1 40.36 85.19L40.36 85.19C40.31 85.28 40.24 85.36 40.15 85.43C40.07 85.49 39.98 85.54 39.87 85.57C39.77 85.6 39.66 85.61 39.56 85.59C39.45 85.58 39.35 85.54 39.26 85.49L32.76 81.79C32.68 81.73 32.6 81.66 32.55 81.57C32.49 81.49 32.44 81.39 32.42 81.29C32.39 81.19 32.38 81.09 32.39 80.99C32.39 80.89 32.42 80.78 32.46 80.69L32.46 80.69Z" />
			<path class="shp1" d="M19.56 112.29L19.56 112.29C19.59 112.19 19.63 112.09 19.7 112C19.76 111.91 19.84 111.84 19.94 111.78C20.03 111.73 20.13 111.69 20.24 111.68C20.35 111.66 20.45 111.66 20.56 111.69L27.76 113.59C27.86 113.62 27.96 113.66 28.05 113.73C28.14 113.79 28.21 113.87 28.27 113.97C28.32 114.06 28.36 114.16 28.37 114.27C28.39 114.38 28.39 114.48 28.36 114.59L28.36 114.59C28.33 114.69 28.29 114.79 28.22 114.88C28.16 114.97 28.08 115.04 27.98 115.1C27.89 115.15 27.79 115.19 27.68 115.2C27.57 115.22 27.47 115.22 27.36 115.19L20.16 113.29C20.06 113.26 19.96 113.22 19.87 113.15C19.78 113.09 19.71 113.01 19.65 112.91C19.6 112.82 19.56 112.72 19.55 112.61C19.53 112.5 19.53 112.4 19.56 112.29Z" />
			<g >
				<path class="shp2" d="M149.26 31.49L152.46 31.49L152.46 47.69L149.66 47.69L142.06 37.09L141.96 37.09L141.96 47.69L138.76 47.69L138.76 31.49L141.56 31.49L149.16 42.09L149.26 42.09L149.26 31.49Z" />
			</g>
			<g >
				<path class="shp2" d="M39.76 149.35L42.86 138.25L46.06 138.25L50.36 154.45L46.86 154.45L44.36 142.75L44.26 142.75L41.26 154.45L38.35 154.45L35.35 142.75L35.25 142.75L32.65 154.55L29.15 154.55L33.45 138.35L36.65 138.35L39.65 149.35L39.76 149.35Z" />
			</g>
			<g >
				<path class="shp2" d="M250.86 140.59L250.86 137.69L262.06 137.69L262.06 154.59L250.86 154.59L250.86 151.69L258.56 151.69L258.56 147.59L251.35 147.59L251.35 144.89L258.55 144.89L258.55 140.59L250.86 140.59Z" />
			</g>
			<g >
				<path class="shp2" d="M153.06 248.29L149.76 248.29C149.74 248.12 149.71 247.96 149.65 247.8C149.59 247.64 149.51 247.49 149.42 247.35C149.32 247.21 149.21 247.08 149.08 246.97C148.95 246.86 148.81 246.77 148.66 246.69C148.49 246.59 148.31 246.49 148.12 246.42C147.94 246.34 147.75 246.27 147.55 246.22C147.36 246.17 147.16 246.13 146.96 246.11C146.76 246.09 146.56 246.08 146.36 246.09C146.17 246.08 145.97 246.09 145.78 246.11C145.59 246.13 145.4 246.17 145.21 246.22C145.03 246.27 144.85 246.34 144.67 246.42C144.49 246.49 144.32 246.59 144.16 246.69C144.03 246.77 143.92 246.86 143.81 246.97C143.71 247.08 143.62 247.2 143.55 247.33C143.48 247.46 143.43 247.6 143.4 247.75C143.37 247.89 143.35 248.04 143.36 248.19C143.36 248.31 143.38 248.44 143.4 248.56C143.43 248.68 143.47 248.79 143.52 248.9C143.57 249.02 143.64 249.12 143.71 249.22C143.78 249.32 143.87 249.41 143.96 249.49C144.12 249.59 144.28 249.69 144.45 249.77C144.62 249.86 144.79 249.93 144.97 250C145.14 250.07 145.32 250.13 145.51 250.17C145.69 250.22 145.87 250.26 146.06 250.29L148.16 250.79C151.16 251.39 152.66 252.89 152.66 255.29C152.67 255.63 152.63 255.98 152.56 256.31C152.49 256.65 152.38 256.98 152.23 257.29C152.09 257.6 151.9 257.89 151.69 258.16C151.48 258.43 151.23 258.68 150.96 258.89C150.64 259.13 150.3 259.34 149.94 259.52C149.58 259.7 149.21 259.85 148.83 259.97C148.45 260.09 148.06 260.18 147.66 260.23C147.26 260.29 146.86 260.3 146.46 260.29C146.06 260.32 145.66 260.31 145.27 260.26C144.87 260.22 144.48 260.14 144.1 260.03C143.71 259.92 143.34 259.78 142.98 259.6C142.62 259.43 142.28 259.22 141.96 258.99C141.69 258.78 141.45 258.55 141.24 258.29C141.03 258.03 140.85 257.74 140.7 257.44C140.56 257.14 140.44 256.82 140.37 256.49C140.29 256.16 140.26 255.83 140.26 255.49L143.46 255.49C143.48 255.65 143.51 255.8 143.56 255.95C143.61 256.1 143.67 256.24 143.75 256.38C143.83 256.52 143.92 256.65 144.02 256.77C144.12 256.89 144.24 256.99 144.36 257.09C144.51 257.19 144.68 257.28 144.85 257.36C145.01 257.43 145.19 257.5 145.36 257.55C145.54 257.6 145.72 257.64 145.91 257.66C146.09 257.68 146.28 257.69 146.46 257.69C146.63 257.69 146.81 257.69 146.98 257.67C147.15 257.65 147.32 257.62 147.49 257.57C147.66 257.53 147.83 257.48 147.99 257.41C148.15 257.35 148.31 257.27 148.46 257.19C148.57 257.11 148.68 257.02 148.77 256.92C148.87 256.81 148.95 256.7 149.02 256.58C149.09 256.46 149.14 256.33 149.18 256.2C149.22 256.07 149.25 255.93 149.26 255.79C149.26 255.67 149.25 255.56 149.23 255.44C149.2 255.33 149.16 255.22 149.11 255.12C149.06 255.01 148.99 254.91 148.92 254.83C148.84 254.74 148.75 254.66 148.66 254.59C148.51 254.49 148.35 254.4 148.19 254.32C148.03 254.23 147.87 254.16 147.7 254.09C147.53 254.02 147.36 253.96 147.19 253.91C147.01 253.86 146.84 253.82 146.66 253.79L144.66 253.39C144.34 253.35 144.02 253.28 143.71 253.19C143.39 253.09 143.09 252.98 142.79 252.85C142.5 252.71 142.21 252.55 141.94 252.38C141.66 252.2 141.4 252 141.16 251.79C140.98 251.6 140.81 251.39 140.67 251.16C140.53 250.94 140.41 250.7 140.32 250.45C140.22 250.2 140.15 249.95 140.11 249.68C140.07 249.42 140.05 249.16 140.06 248.89C140.04 248.53 140.07 248.17 140.15 247.82C140.22 247.47 140.34 247.13 140.49 246.81C140.65 246.49 140.84 246.19 141.08 245.92C141.31 245.64 141.57 245.4 141.86 245.19C142.21 244.95 142.58 244.73 142.96 244.55C143.34 244.37 143.74 244.21 144.15 244.1C144.55 243.98 144.97 243.89 145.39 243.84C145.81 243.79 146.24 243.77 146.66 243.79C147.07 243.76 147.49 243.77 147.9 243.82C148.31 243.86 148.72 243.94 149.12 244.05C149.52 244.16 149.91 244.3 150.28 244.48C150.66 244.65 151.02 244.86 151.36 245.09C151.64 245.24 151.9 245.44 152.12 245.66C152.35 245.89 152.54 246.15 152.69 246.43C152.84 246.72 152.95 247.02 153.01 247.34C153.07 247.65 153.09 247.97 153.06 248.29Z" />
			</g>
		</g>
		<g >
			<text style="transform: matrix(1,0,0,1,137.28,289.35)" >
				<tspan x="0" y="0" class="txt3">180</tspan>
			</text>
			<g >
				<path class="shp4" d="M155.91 282.12C156.41 282.12 156.81 282.52 156.81 283.02C156.81 283.52 156.41 283.92 155.91 283.92C155.41 283.92 155.01 283.52 155.01 283.02C155.01 282.52 155.41 282.12 155.91 282.12Z" />
				<path class="shp5" d="M155.91 282.22C156.35 282.22 156.71 282.58 156.71 283.02C156.71 283.46 156.35 283.82 155.91 283.82C155.47 283.82 155.11 283.46 155.11 283.02C155.11 282.58 155.47 282.22 155.91 282.22Z" />
			</g>
		</g>
		<g >
			<text style="transform: matrix(0,-1,1,0,290.35,151.72)" >
				<tspan x="0" y="0" class="txt3">90</tspan>
			</text>
			<g >
				<path class="shp4" d="M284.02 137.46C284.52 137.46 284.92 137.86 284.92 138.36C284.92 138.86 284.52 139.26 284.02 139.26C283.52 139.26 283.12 138.86 283.12 138.36C283.12 137.86 283.52 137.46 284.02 137.46Z" />
				<path class="shp5" d="M284.02 137.56C284.46 137.56 284.82 137.92 284.82 138.36C284.82 138.8 284.46 139.16 284.02 139.16C283.58 139.16 283.22 138.8 283.22 138.36C283.22 137.92 283.58 137.56 284.02 137.56Z" />
			</g>
		</g>
		<g >
			<text style="transform: matrix(1,0,0,1,142.27,7.42)" >
				<tspan x="0" y="0" class="txt6">0</tspan>
			</text>
			<g >
				<path class="shp4" d="M149.76 1.32C150.26 1.32 150.66 1.72 150.66 2.22C150.66 2.72 150.26 3.12 149.76 3.12C149.26 3.12 148.86 2.72 148.86 2.22C148.86 1.72 149.26 1.32 149.76 1.32Z" />
				<path class="shp5" d="M149.76 1.42C150.2 1.42 150.56 1.78 150.56 2.22C150.56 2.66 150.2 3.02 149.76 3.02C149.32 3.02 148.96 2.66 148.96 2.22C148.96 1.78 149.32 1.42 149.76 1.42Z" />
			</g>
		</g>
		<g >
			<text style="transform: matrix(0,1,-1,0,2.3,136.75)" >
				<tspan x="0" y="0" class="txt3">270</tspan>
			</text>
			<g >
				<path class="shp4" d="M8.42 154.48C8.92 154.48 9.32 154.88 9.32 155.38C9.32 155.88 8.92 156.28 8.42 156.28C7.92 156.28 7.52 155.88 7.52 155.38C7.52 154.88 7.92 154.48 8.42 154.48Z" />
				<path class="shp5" d="M8.42 154.58C8.86 154.58 9.22 154.94 9.22 155.38C9.22 155.82 8.86 156.18 8.42 156.18C7.98 156.18 7.62 155.82 7.62 155.38C7.62 154.94 7.98 154.58 8.42 154.58Z" />
			</g>
		</g>
	</g>
</svg>